<svg width="18" height="18" viewBox="0 0 18 18" fill="none" xmlns="http://www.w3.org/2000/svg">
<path d="M17.6425 8.48289C15.7381 4.47106 12.8593 2.45209 9.00012 2.45209C5.13896 2.45209 2.26217 4.47106 0.357705 8.4849C0.281317 8.64665 0.241699 8.82332 0.241699 9.0022C0.241699 9.18108 0.281317 9.35775 0.357705 9.5195C2.26217 13.5313 5.14096 15.5503 9.00012 15.5503C12.8613 15.5503 15.7381 13.5313 17.6425 9.51749C17.7972 9.19204 17.7972 8.81436 17.6425 8.48289ZM9.00012 14.1039C5.75971 14.1039 3.38717 12.4606 1.71373 9.00119C3.38717 5.54182 5.75971 3.89852 9.00012 3.89852C12.2405 3.89852 14.6131 5.54182 16.2865 9.00119C14.6151 12.4606 12.2425 14.1039 9.00012 14.1039ZM8.91976 5.46548C6.96708 5.46548 5.38404 7.04852 5.38404 9.00119C5.38404 10.9539 6.96708 12.5369 8.91976 12.5369C10.8724 12.5369 12.4555 10.9539 12.4555 9.00119C12.4555 7.04852 10.8724 5.46548 8.91976 5.46548ZM8.91976 11.2512C7.67623 11.2512 6.66976 10.2447 6.66976 9.00119C6.66976 7.75767 7.67623 6.75119 8.91976 6.75119C10.1633 6.75119 11.1698 7.75767 11.1698 9.00119C11.1698 10.2447 10.1633 11.2512 8.91976 11.2512Z" fill="#7A7A7A"/>
</svg>
