<svg viewBox="0 0 18 18" xmlns="http://www.w3.org/2000/svg">
<path d="M10.0403 8.99909L15.3138 2.71315C15.4021 2.60869 15.3278 2.44998 15.1912 2.44998H13.5881C13.4937 2.44998 13.4033 2.49217 13.341 2.56449L8.99165 7.74954L4.64232 2.56449C4.58206 2.49217 4.49165 2.44998 4.39523 2.44998H2.7921C2.65549 2.44998 2.58116 2.60869 2.66956 2.71315L7.94299 8.99909L2.66956 15.285C2.64976 15.3083 2.63705 15.3368 2.63295 15.3671C2.62886 15.3974 2.63354 15.4282 2.64644 15.4559C2.65934 15.4836 2.67993 15.507 2.70575 15.5234C2.73156 15.5398 2.76154 15.5484 2.7921 15.5482H4.39523C4.48965 15.5482 4.58005 15.506 4.64232 15.4337L8.99165 10.2486L13.341 15.4337C13.4013 15.506 13.4917 15.5482 13.5881 15.5482H15.1912C15.3278 15.5482 15.4021 15.3895 15.3138 15.285L10.0403 8.99909Z" />
</svg>
