<svg width="189" height="53" viewBox="0 0 189 53" fill="none" xmlns="http://www.w3.org/2000/svg">
<path d="M20.1961 31.6718V34.2958H39.7801V50.9998H0.0361328V1.7198H38.6281V16.1198H20.1961V18.7438H36.9001V31.6718H20.1961Z" fill="#0B0B0B"/>
<path d="M68.0156 27.0638L88.9436 28.2798V37.1118C88.9436 41.7198 86.853 45.3251 82.6716 47.9278C78.533 50.5305 72.7516 51.8318 65.3276 51.8318C61.0183 51.8318 57.1996 51.2558 53.8716 50.1038C50.5436 48.9518 47.877 47.2878 45.8716 45.1118C43.8663 42.8931 42.6716 40.2265 42.2876 37.1118C42.1596 35.9598 42.053 34.4451 41.9676 32.5678C41.8823 30.6478 41.8396 28.5571 41.8396 26.2958C41.8396 24.0345 41.8823 21.9651 41.9676 20.0878C42.053 18.2105 42.1596 16.6958 42.2876 15.5438C42.6716 12.3865 43.8663 9.7198 45.8716 7.5438C47.877 5.32513 50.5436 3.6398 53.8716 2.4878C57.1996 1.29313 61.0183 0.695801 65.3276 0.695801C70.1916 0.695801 74.373 1.29313 77.8716 2.4878C81.413 3.68247 84.1436 5.38913 86.0636 7.6078C87.9836 9.7838 88.9436 12.4291 88.9436 15.5438V21.3678L68.0156 23.6078V18.4238C68.0156 17.2718 67.4396 16.6958 66.2876 16.6958C65.1356 16.6958 64.5596 17.2718 64.5596 18.4238V33.9758C64.5596 35.1278 65.1356 35.7038 66.2876 35.7038C67.4396 35.7038 68.0156 35.1278 68.0156 33.9758V27.0638Z" fill="#0B0B0B"/>
<path d="M117.581 15.5438V1.7198H138.317V50.9998H117.581V35.1278H112.397V50.9998H91.6611V1.7198H112.397V15.5438H117.581Z" fill="#0B0B0B"/>
<path d="M187.746 37.6878C187.063 42.1678 184.695 45.6878 180.642 48.2478C176.588 50.7651 171.276 52.0238 164.706 52.0238C158.135 52.0238 152.823 50.7651 148.77 48.2478C144.759 45.7305 142.391 42.2531 141.666 37.8158C141.495 36.6211 141.346 35.0211 141.218 33.0158C141.132 30.9678 141.09 28.7705 141.09 26.4238C141.09 24.1625 141.132 22.0718 141.218 20.1518C141.346 18.1891 141.495 16.6531 141.666 15.5438C142.391 10.8505 144.78 7.20247 148.834 4.5998C152.887 1.99713 158.178 0.695801 164.706 0.695801C171.276 0.695801 176.588 1.99713 180.642 4.5998C184.695 7.1598 187.063 10.7225 187.746 15.2878C187.916 16.3971 188.044 17.9331 188.13 19.8958C188.258 21.8158 188.322 23.9278 188.322 26.2318C188.322 28.6638 188.258 30.8825 188.13 32.8878C188.044 34.8931 187.916 36.4931 187.746 37.6878ZM166.434 34.7438V17.9758C166.434 16.8238 165.858 16.2478 164.706 16.2478C163.554 16.2478 162.978 16.8238 162.978 17.9758V34.7438C162.978 35.8958 163.554 36.4718 164.706 36.4718C165.858 36.4718 166.434 35.8958 166.434 34.7438Z" fill="#0B0B0B"/>
</svg>
