<svg width="285" height="183" viewBox="0 0 285 183" fill="none" xmlns="http://www.w3.org/2000/svg">
<path d="M67.196 130.672V133.296H86.78V150H47.036V100.72H85.628V115.12H67.196V117.744H83.9V130.672H67.196Z" fill="#0B0B0B"/>
<path d="M115.016 126.064L135.944 127.28V136.112C135.944 140.72 133.853 144.325 129.672 146.928C125.533 149.53 119.752 150.832 112.328 150.832C108.018 150.832 104.2 150.256 100.872 149.104C97.5435 147.952 94.8768 146.288 92.8715 144.112C90.8662 141.893 89.6715 139.226 89.2875 136.112C89.1595 134.96 89.0528 133.445 88.9675 131.568C88.8822 129.648 88.8395 127.557 88.8395 125.296C88.8395 123.034 88.8822 120.965 88.9675 119.088C89.0528 117.21 89.1595 115.696 89.2875 114.544C89.6715 111.386 90.8662 108.72 92.8715 106.544C94.8768 104.325 97.5435 102.64 100.872 101.488C104.2 100.293 108.018 99.6958 112.328 99.6958C117.192 99.6958 121.373 100.293 124.872 101.488C128.413 102.682 131.144 104.389 133.064 106.608C134.984 108.784 135.944 111.429 135.944 114.544V120.368L115.016 122.608V117.424C115.016 116.272 114.44 115.696 113.288 115.696C112.136 115.696 111.56 116.272 111.56 117.424V132.976C111.56 134.128 112.136 134.704 113.288 134.704C114.44 134.704 115.016 134.128 115.016 132.976V126.064Z" fill="#0B0B0B"/>
<path d="M164.581 114.544V100.72H185.317V150H164.581V134.128H159.397V150H138.661V100.72H159.397V114.544H164.581Z" fill="#0B0B0B"/>
<path d="M234.746 136.688C234.063 141.168 231.695 144.688 227.642 147.248C223.588 149.765 218.276 151.024 211.706 151.024C205.135 151.024 199.823 149.765 195.77 147.248C191.759 144.73 189.391 141.253 188.666 136.816C188.495 135.621 188.346 134.021 188.218 132.016C188.132 129.968 188.09 127.77 188.09 125.424C188.09 123.162 188.132 121.072 188.218 119.152C188.346 117.189 188.495 115.653 188.666 114.544C189.391 109.85 191.78 106.202 195.834 103.6C199.887 100.997 205.178 99.6958 211.706 99.6958C218.276 99.6958 223.588 100.997 227.642 103.6C231.695 106.16 234.063 109.722 234.746 114.288C234.916 115.397 235.044 116.933 235.13 118.896C235.258 120.816 235.322 122.928 235.322 125.232C235.322 127.664 235.258 129.882 235.13 131.888C235.044 133.893 234.916 135.493 234.746 136.688ZM213.434 133.744V116.976C213.434 115.824 212.858 115.248 211.706 115.248C210.553 115.248 209.978 115.824 209.978 116.976V133.744C209.978 134.896 210.553 135.472 211.706 135.472C212.858 135.472 213.434 134.896 213.434 133.744Z" fill="#0B0B0B"/>
<path fill-rule="evenodd" clip-rule="evenodd" d="M129.598 162.08C117.585 162.561 105.714 163.152 94.1366 163.798C77.7481 164.712 61.3661 165.657 45.0828 167.154C39.9571 167.626 34.752 167.926 29.6584 168.516C26.461 168.887 22.2212 169.414 21.6648 169.525C21.3738 169.588 21.2468 169.682 21.2058 169.714C20.9174 169.934 20.97 170.147 21.1328 170.312C21.1982 170.383 21.3635 170.557 21.8225 170.58C52.5174 172.195 83.9045 169.044 114.637 168.713C167.931 168.146 222.842 170.399 275.713 175.315C276.175 175.354 276.624 175.157 276.688 174.866C276.765 174.582 276.431 174.306 275.97 174.267C223.008 169.344 168.008 167.083 114.611 167.658C85.9699 167.965 56.7635 170.73 28.0828 169.785C28.7417 169.706 29.3879 169.627 29.9777 169.556C35.0507 168.965 40.2341 168.674 45.3392 168.201C61.5879 166.705 77.9366 165.759 94.3033 164.853C114.611 163.719 135.803 162.742 157.162 162.285C164.803 162.356 172.418 162.427 180.034 162.514C196.508 162.703 213.06 163.254 229.495 163.995C234.444 164.223 239.393 164.459 244.342 164.664C245.983 164.735 250.213 164.94 250.803 164.924C251.534 164.908 251.675 164.53 251.688 164.467C251.726 164.326 251.7 164.129 251.341 163.963C251.303 163.94 251.072 163.861 250.559 163.813C220.675 161.025 188.765 160.56 157.188 161.23C123.88 160.938 90.4443 160.812 57.2212 160.678C56.7456 160.678 56.3571 160.915 56.3533 161.206C56.3507 161.498 56.734 161.734 57.2096 161.742C81.266 161.836 105.444 161.931 129.598 162.08Z" fill="#71EB34"/>
<path fill-rule="evenodd" clip-rule="evenodd" d="M259.612 120.373C267.737 120.568 276.04 120.177 283.809 122.949C284.272 123.112 284.781 122.874 284.948 122.412C285.112 121.95 284.874 121.442 284.411 121.275C276.46 118.44 267.969 118.795 259.655 118.596C259.164 118.582 258.754 118.973 258.743 119.463C258.729 119.953 259.121 120.358 259.612 120.373Z" fill="#71EB34"/>
<path fill-rule="evenodd" clip-rule="evenodd" d="M258.882 108.605C261.415 106.281 264.179 104.54 267.52 103.677C267.997 103.554 268.282 103.069 268.161 102.594C268.036 102.119 267.548 101.834 267.075 101.957C263.441 102.895 260.432 104.772 257.678 107.298C257.315 107.629 257.29 108.192 257.625 108.553C257.956 108.914 258.522 108.937 258.882 108.605Z" fill="#71EB34"/>
<path fill-rule="evenodd" clip-rule="evenodd" d="M251.837 83.2276C252.998 79.257 255.285 76.1508 258.79 73.9077C259.203 73.643 259.324 73.093 259.057 72.6805C258.793 72.268 258.241 72.1478 257.828 72.4126C253.949 74.8962 251.413 78.3335 250.127 82.7298C249.988 83.2003 250.263 83.6942 250.733 83.8313C251.206 83.9688 251.702 83.6981 251.837 83.2276Z" fill="#71EB34"/>
<path fill-rule="evenodd" clip-rule="evenodd" d="M211.818 77.839C211.127 78.6502 210.508 79.5243 209.981 80.4549C209.745 80.8692 209.332 81.7496 209.268 82.5047C209.197 83.3091 209.471 83.9878 210.176 84.3452C211.113 84.8192 211.861 84.7698 212.438 84.4831C212.994 84.2077 213.428 83.6666 213.703 82.941C214.226 81.5542 214.148 79.4348 213.874 78.2253C214.611 77.4663 215.42 76.7781 216.285 76.1662C222.732 71.6093 232.189 73.2896 239.466 80.1031C242.013 82.4887 243.238 87.4986 243.876 92.9041C244.87 101.32 244.303 110.721 244.225 113.475C244.207 114.155 244.271 114.558 244.307 114.639C244.474 115.036 244.77 115.139 244.976 115.178C245.276 115.231 245.514 115.174 245.707 115.075C245.967 114.938 246.18 114.698 246.28 114.327C246.334 114.123 246.348 113.838 246.341 113.534C246.334 113.323 246.291 113.093 246.334 112.942C246.611 111.975 246.946 111.03 247.274 110.079C248.367 106.882 249.782 103.885 251.352 100.893C256.343 91.383 261.169 81.335 269.351 74.0897C269.718 73.7646 269.753 73.2025 269.426 72.8358C269.101 72.4692 268.539 72.4357 268.168 72.7612C259.823 80.1496 254.864 90.3707 249.774 100.069C248.439 102.614 247.213 105.164 246.195 107.831C246.298 103.113 246.259 96.5837 245.393 90.8063C244.624 85.6681 243.16 81.1271 240.684 78.808C232.713 71.3439 222.315 69.7247 215.256 74.7169C214.501 75.2513 213.781 75.839 213.111 76.4764C209.418 69.8231 201.51 67.1565 194.522 70.3387C194.073 70.5423 193.877 71.0696 194.08 71.5155C194.287 71.9614 194.814 72.1583 195.263 71.9547C201.56 69.0873 208.702 71.6462 211.818 77.839ZM212.335 80.0665C212.046 80.473 211.779 80.8944 211.53 81.33C211.398 81.5638 211.17 82.0133 211.074 82.4532C211.053 82.5562 211.049 82.7175 211.049 82.7921C211.295 82.9129 211.487 82.9712 211.644 82.8927C211.84 82.7961 211.94 82.5686 212.036 82.3146C212.278 81.6772 212.356 80.8322 212.335 80.0665Z" fill="#71EB34"/>
<g clip-path="url(#clip0_50_785)">
<path fill-rule="evenodd" clip-rule="evenodd" d="M236.674 9.28828C237.611 8.95443 238.597 8.51073 239.357 7.86834C240.26 7.10534 240.628 6.12267 240.874 5.08828C241.191 3.75936 241.317 2.34373 241.701 1.01265C241.844 0.518343 242.117 0.331493 242.234 0.24857C242.531 0.0391084 242.831 -0.0168805 243.113 0.00411945C243.448 0.0283502 243.907 0.15488 244.209 0.715418C244.252 0.795649 244.308 0.917886 244.346 1.08535C244.373 1.20812 244.391 1.59203 244.42 1.75034C244.493 2.14019 244.554 2.53005 244.611 2.92205C244.801 4.22674 244.91 5.33488 245.51 6.53349C246.325 8.16072 247.141 9.15634 248.249 9.59734C249.319 10.0238 250.599 9.94359 252.234 9.6092C252.39 9.57151 252.544 9.5392 252.696 9.51281C253.417 9.38681 254.106 9.86012 254.248 10.5784C254.39 11.2962 253.931 11.9957 253.217 12.1534C253.068 12.1863 252.921 12.2175 252.775 12.246C250.566 12.7931 248.007 14.7456 246.521 16.4552C246.062 16.9824 245.391 18.4561 244.707 19.3963C244.202 20.0898 243.634 20.547 243.158 20.7085C242.839 20.8173 242.569 20.8006 242.347 20.7457C242.024 20.666 241.756 20.4909 241.55 20.2126C241.438 20.0602 241.334 19.8561 241.285 19.5955C241.261 19.47 241.258 19.1513 241.259 19.007C241.119 18.5272 240.949 18.0587 240.824 17.5746C240.528 16.4196 239.945 15.6884 239.254 14.7224C238.607 13.8183 237.913 13.2503 236.895 12.7969C236.762 12.7646 235.693 12.5029 235.316 12.3526C234.764 12.1324 234.502 11.7636 234.406 11.5649C234.244 11.2278 234.228 10.9333 234.26 10.6877C234.308 10.3254 234.47 10.0152 234.759 9.76482C234.938 9.6092 235.205 9.45788 235.562 9.38411C235.839 9.3265 236.571 9.29312 236.674 9.28828ZM242.945 7.4058C242.994 7.51618 243.047 7.62711 243.103 7.73911C244.296 10.1223 245.631 11.4529 247.252 12.0985L247.307 12.1195C246.222 12.925 245.24 13.8253 244.489 14.6885C244.18 15.0439 243.771 15.7821 243.329 16.5392C242.927 15.2334 242.27 14.3105 241.444 13.1555C240.813 12.274 240.152 11.6107 239.339 11.0701C239.97 10.7464 240.571 10.3674 241.095 9.92474C241.967 9.18759 242.544 8.33357 242.945 7.4058Z" fill="#71EB34"/>
</g>
<path fill-rule="evenodd" clip-rule="evenodd" d="M13.8637 60.8975C13.7699 60.3413 13.6993 59.7913 13.6537 59.2413C13.5849 58.4163 13.6274 57.585 13.6031 56.76C13.5924 56.41 13.5506 55.4975 13.5674 55.3663C13.7206 54.2225 14.6437 54.0475 14.9137 54.0163C15.0443 53.9975 16.3856 53.8476 16.6749 55.3351C17.0299 57.1538 17.1437 58.9851 17.0181 60.7788C17.3112 62.3038 17.8125 63.8225 18.4743 65.1975C21.1081 70.6663 26.1268 71.1975 31.5643 71.1475C32.4006 71.135 33.095 71.7913 33.1387 72.6225C33.1825 73.46 32.56 74.185 31.7275 74.26C28.6881 74.5538 23.2955 76.9913 21.4312 79.5288C21.0412 80.0601 20.8143 81.3413 20.5143 82.5976C20.0956 84.3413 19.5974 86.0663 19.0393 86.7913C18.9556 86.9038 17.9374 88.0538 17.6337 88.2226C16.9037 88.6226 16.3193 88.3913 15.9874 88.1788C15.6556 87.9663 15.2799 87.5475 15.1299 86.8538C14.9731 86.1288 15.1056 84.6413 15.0812 84.3225C14.9924 83.1663 14.7612 80.8975 14.2893 78.9475C14.035 77.8975 13.7637 76.9288 13.3149 76.4475C11.6537 74.6663 8.99745 74.9288 6.76057 75.2225C6.5037 75.2538 6.24683 75.2913 5.99057 75.3226C5.07995 75.5913 4.11305 75.7913 3.09118 75.91C1.54805 76.0913 1.29432 74.6725 1.28057 74.5788C1.25182 74.3725 1.14493 73.3101 2.30806 72.8851C2.43493 72.8413 3.37119 72.635 3.73182 72.5538C4.23432 72.4413 4.74243 72.3538 5.25243 72.2726C10.5206 70.6351 13.3818 66.035 13.8637 60.8975ZM15.6718 66.5788C17.6606 70.6913 20.6787 72.6788 24.2562 73.5788H24.2556C22.0218 74.7475 19.9899 76.2101 18.9131 77.6788C18.5043 78.2351 18.1293 79.3538 17.7912 80.61C17.6081 79.4413 17.3606 78.1975 17.0337 77.135C16.6618 75.9225 16.1612 74.9163 15.6024 74.3163C14.5237 73.1601 13.1699 72.5163 11.7143 72.1976C13.4568 70.6538 14.7781 68.7288 15.6718 66.5788Z" fill="#71EB34"/>
<defs>
<clipPath id="clip0_50_785">
<rect width="21" height="21" fill="white" transform="translate(234)"/>
</clipPath>
</defs>
</svg>
